<svg xmlns="http://www.w3.org/2000/svg" width="1280" height="640" viewBox="0 0 1280 640"><rect width="1280" height="640" fill="#000000"/><circle cx="640" cy="210" r="23.75" fill="#FFFFFF"/><path d="M676.71 176.94 A49.4 49.4 0 0 1 676.71 243.06" fill="none" stroke="#FFFFFF" stroke-width="12.35" stroke-linecap="round"/><path d="M603.29 243.06 A49.4 49.4 0 0 1 603.29 176.94" fill="none" stroke="#FFFFFF" stroke-width="12.35" stroke-linecap="round"/><path d="M696.48 159.15 A76.0 76.0 0 0 1 696.48 260.85" fill="none" stroke="#FFFFFF80" stroke-width="12.35" stroke-linecap="round"/><path d="M583.52 260.85 A76.0 76.0 0 0 1 583.52 159.15" fill="none" stroke="#FFFFFF80" stroke-width="12.35" stroke-linecap="round"/><path d="M298.28662109375 410.0V329.970703125H349.52685546875V342.0556640625H312.62744140625V366.064453125H345.92822265625V377.98828125H312.62744140625V410.0Z M386.84326171875 411.2353515625Q377.76611328125 411.2353515625 371.240234375 407.421875Q364.71435546875 403.6083984375 361.1962890625 396.6796875Q357.67822265625 389.7509765625 357.67822265625 380.3515625Q357.67822265625 371.11328125 361.142578125 364.10400390625Q364.60693359375 357.0947265625 370.9716796875 353.14697265625Q377.33642578125 349.19921875 385.93017578125 349.19921875Q393.23486328125 349.19921875 399.4921875 352.39501953125Q405.74951171875 355.5908203125 409.56298828125 362.27783203125Q413.37646484375 368.96484375 413.37646484375 379.4921875V383.896484375H371.58935546875Q371.85791015625 391.8994140625 376.07421875 396.0888671875Q380.29052734375 400.2783203125 387.00439453125 400.2783203125Q391.62353515625 400.2783203125 394.9267578125 398.291015625Q398.22998046875 396.3037109375 399.62646484375 392.490234375L412.46337890625 395.1220703125Q410.31494140625 402.373046875 403.57421875 406.80419921875Q396.83349609375 411.2353515625 386.84326171875 411.2353515625ZM371.64306640625 374.3896484375H399.78759765625Q399.14306640625 367.9443359375 395.6787109375 364.05029296875Q392.21435546875 360.15625 385.98388671875 360.15625Q379.59228515625 360.15625 375.859375 364.26513671875Q372.12646484375 368.3740234375 371.64306640625 374.3896484375Z M449.88720703125 411.2353515625Q440.81005859375 411.2353515625 434.2841796875 407.421875Q427.75830078125 403.6083984375 424.240234375 396.6796875Q420.72216796875 389.7509765625 420.72216796875 380.3515625Q420.72216796875 371.11328125 424.1865234375 364.10400390625Q427.65087890625 357.0947265625 434.015625 353.14697265625Q440.38037109375 349.19921875 448.97412109375 349.19921875Q456.27880859375 349.19921875 462.5361328125 352.39501953125Q468.79345703125 355.5908203125 472.60693359375 362.27783203125Q476.42041015625 368.96484375 476.42041015625 379.4921875V383.896484375H434.63330078125Q434.90185546875 391.8994140625 439.1181640625 396.0888671875Q443.33447265625 400.2783203125 450.04833984375 400.2783203125Q454.66748046875 400.2783203125 457.970703125 398.291015625Q461.27392578125 396.3037109375 462.67041015625 392.490234375L475.50732421875 395.1220703125Q473.35888671875 402.373046875 466.6181640625 406.80419921875Q459.87744140625 411.2353515625 449.88720703125 411.2353515625ZM434.68701171875 374.3896484375H462.83154296875Q462.18701171875 367.9443359375 458.72265625 364.05029296875Q455.25830078125 360.15625 449.02783203125 360.15625Q442.63623046875 360.15625 438.9033203125 364.26513671875Q435.17041015625 368.3740234375 434.68701171875 374.3896484375Z M500.36279296875 329.970703125V410.0H486.39794921875V329.970703125Z  M535.94775390625 342.0556640625V329.970703125H599.64892578125V342.0556640625H574.99560546875V410.0H560.65478515625V342.0556640625Z M623.48388671875 374.8193359375V410.0H609.51904296875V329.970703125H623.26904296875V361.0693359375Q628.74755859375 349.19921875 641.47705078125 349.19921875Q650.76904296875 349.19921875 656.40869140625 355.107421875Q662.04833984375 361.015625 662.04833984375 371.8115234375V410.0H648.02978515625V373.9599609375Q648.02978515625 367.9443359375 644.91455078125 364.5068359375Q641.79931640625 361.0693359375 636.32080078125 361.0693359375Q630.73486328125 361.0693359375 627.109375 364.66796875Q623.48388671875 368.2666015625 623.48388671875 374.8193359375Z M701.40576171875 411.2353515625Q692.32861328125 411.2353515625 685.802734375 407.421875Q679.27685546875 403.6083984375 675.7587890625 396.6796875Q672.24072265625 389.7509765625 672.24072265625 380.3515625Q672.24072265625 371.11328125 675.705078125 364.10400390625Q679.16943359375 357.0947265625 685.5341796875 353.14697265625Q691.89892578125 349.19921875 700.49267578125 349.19921875Q707.79736328125 349.19921875 714.0546875 352.39501953125Q720.31201171875 355.5908203125 724.12548828125 362.27783203125Q727.93896484375 368.96484375 727.93896484375 379.4921875V383.896484375H686.15185546875Q686.42041015625 391.8994140625 690.63671875 396.0888671875Q694.85302734375 400.2783203125 701.56689453125 400.2783203125Q706.18603515625 400.2783203125 709.4892578125 398.291015625Q712.79248046875 396.3037109375 714.18896484375 392.490234375L727.02587890625 395.1220703125Q724.87744140625 402.373046875 718.13671875 406.80419921875Q711.39599609375 411.2353515625 701.40576171875 411.2353515625ZM686.20556640625 374.3896484375H714.35009765625Q713.70556640625 367.9443359375 710.2412109375 364.05029296875Q706.77685546875 360.15625 700.54638671875 360.15625Q694.15478515625 360.15625 690.421875 364.26513671875Q686.68896484375 368.3740234375 686.20556640625 374.3896484375Z  M764.27587890625 410.0V329.970703125H794.89111328125Q803.53857421875 329.970703125 809.2587890625 332.68310546875Q814.97900390625 335.3955078125 817.8525390625 340.09521484375Q820.72607421875 344.794921875 820.72607421875 350.7568359375Q820.72607421875 358.0615234375 816.6708984375 362.2509765625Q812.61572265625 366.4404296875 806.76123046875 367.783203125V368.5888671875Q811.00439453125 368.8037109375 814.92529296875 371.1669921875Q818.84619140625 373.5302734375 821.34375 377.8271484375Q823.84130859375 382.1240234375 823.84130859375 388.193359375Q823.84130859375 394.423828125 820.83349609375 399.365234375Q817.82568359375 404.306640625 811.783203125 407.1533203125Q805.74072265625 410.0 796.55615234375 410.0ZM778.61669921875 398.0224609375H794.30029296875Q802.24951171875 398.0224609375 805.767578125 394.9609375Q809.28564453125 391.8994140625 809.28564453125 387.119140625Q809.28564453125 381.748046875 805.36474609375 378.095703125Q801.44384765625 374.443359375 794.78369140625 374.443359375H778.61669921875ZM778.61669921875 364.0771484375H793.06494140625Q798.75830078125 364.0771484375 802.57177734375 360.98876953125Q806.38525390625 357.900390625 806.38525390625 352.5830078125Q806.38525390625 347.91015625 803.10888671875 344.90234375Q799.83251953125 341.89453125 793.38720703125 341.89453125H778.61669921875Z M860.67431640625 411.2353515625Q851.59716796875 411.2353515625 845.0712890625 407.421875Q838.54541015625 403.6083984375 835.02734375 396.6796875Q831.50927734375 389.7509765625 831.50927734375 380.3515625Q831.50927734375 371.11328125 834.9736328125 364.10400390625Q838.43798828125 357.0947265625 844.802734375 353.14697265625Q851.16748046875 349.19921875 859.76123046875 349.19921875Q867.06591796875 349.19921875 873.3232421875 352.39501953125Q879.58056640625 355.5908203125 883.39404296875 362.27783203125Q887.20751953125 368.96484375 887.20751953125 379.4921875V383.896484375H845.42041015625Q845.68896484375 391.8994140625 849.9052734375 396.0888671875Q854.12158203125 400.2783203125 860.83544921875 400.2783203125Q865.45458984375 400.2783203125 868.7578125 398.291015625Q872.06103515625 396.3037109375 873.45751953125 392.490234375L886.29443359375 395.1220703125Q884.14599609375 402.373046875 877.4052734375 406.80419921875Q870.66455078125 411.2353515625 860.67431640625 411.2353515625ZM845.47412109375 374.3896484375H873.61865234375Q872.97412109375 367.9443359375 869.509765625 364.05029296875Q866.04541015625 360.15625 859.81494140625 360.15625Q853.42333984375 360.15625 849.6904296875 364.26513671875Q845.95751953125 368.3740234375 845.47412109375 374.3896484375Z M913.94287109375 411.2353515625Q908.24951171875 411.2353515625 903.68408203125 409.16748046875Q899.11865234375 407.099609375 896.48681640625 403.0712890625Q893.85498046875 399.04296875 893.85498046875 393.134765625Q893.85498046875 386.3671875 897.158203125 382.63427734375Q900.46142578125 378.9013671875 905.6982421875 377.20947265625Q910.93505859375 375.517578125 916.73583984375 374.9267578125Q924.57763671875 374.0673828125 928.06884765625 373.34228515625Q931.56005859375 372.6171875 931.56005859375 369.501953125V369.2333984375Q931.56005859375 364.8291015625 928.87451171875 362.38525390625Q926.18896484375 359.94140625 921.08642578125 359.94140625Q915.82275390625 359.94140625 912.70751953125 362.2509765625Q909.59228515625 364.560546875 908.51806640625 367.5146484375L895.57373046875 364.8828125Q898.20556640625 356.93359375 905.107421875 353.06640625Q912.00927734375 349.19921875 921.03271484375 349.19921875Q925.27587890625 349.19921875 929.599609375 350.19287109375Q933.92333984375 351.1865234375 937.52197265625 353.52294921875Q941.12060546875 355.859375 943.32275390625 359.86083984375Q945.52490234375 363.8623046875 945.52490234375 369.8779296875V410.0H932.15087890625V401.728515625H931.61376953125Q929.62646484375 405.595703125 925.27587890625 408.41552734375Q920.92529296875 411.2353515625 913.94287109375 411.2353515625ZM917.54150390625 400.869140625Q923.98681640625 400.869140625 927.8271484375 397.1630859375Q931.66748046875 393.45703125 931.66748046875 388.4619140625V381.3720703125Q930.70068359375 382.1240234375 928.22998046875 382.68798828125Q925.75927734375 383.251953125 922.9931640625 383.65478515625Q920.22705078125 384.0576171875 918.40087890625 384.326171875Q913.67431640625 384.970703125 910.5322265625 386.904296875Q907.39013671875 388.837890625 907.39013671875 392.9736328125Q907.39013671875 396.8408203125 910.23681640625 398.85498046875Q913.08349609375 400.869140625 917.54150390625 400.869140625Z M986.11767578125 349.951171875V360.908203125H974.51611328125V393.0810546875Q974.51611328125 396.357421875 975.8857421875 397.88818359375Q977.25537109375 399.4189453125 980.47802734375 399.4189453125Q981.44482421875 399.4189453125 983.00244140625 399.17724609375Q984.56005859375 398.935546875 985.58056640625 398.720703125L987.78271484375 409.5166015625Q985.47314453125 410.21484375 983.05615234375 410.51025390625Q980.63916015625 410.8056640625 978.43701171875 410.8056640625Q969.78955078125 410.8056640625 965.17041015625 406.5087890625Q960.55126953125 402.2119140625 960.55126953125 394.2626953125V360.908203125H952.01123046875V349.951171875H960.55126953125V335.6640625H974.51611328125V349.951171875Z" fill="#FFFFFF"/><path d="M456.85546875 480.0V450.8984375H463.41796875L469.765625 467.59765625Q470.05859375 468.37890625 470.4296875 469.619140625Q470.80078125 470.859375 471.19140625 472.28515625Q471.58203125 473.7109375 471.9140625 475.0390625Q472.265625 473.75 472.65625 472.32421875Q473.046875 470.8984375 473.41796875 469.6484375Q473.7890625 468.3984375 474.08203125 467.59765625L480.33203125 450.8984375H486.93359375V480.0H482.5V464.3359375Q482.5 462.734375 482.548828125 460.205078125Q482.59765625 457.67578125 482.65625 455.234375Q482.1484375 457.01171875 481.6015625 458.75Q481.0546875 460.48828125 480.56640625 461.962890625Q480.078125 463.4375 479.74609375 464.3359375L473.7890625 480.0H469.98046875L463.9453125 464.3359375Q463.4375 463.02734375 462.646484375 460.52734375Q461.85546875 458.02734375 461.015625 455.33203125Q461.0546875 456.85546875 461.09375 458.515625Q461.1328125 460.17578125 461.162109375 461.69921875Q461.19140625 463.22265625 461.19140625 464.3359375V480.0Z M500.46875 480.2734375Q497.12890625 480.2734375 495.078125 478.173828125Q493.02734375 476.07421875 493.02734375 472.03125V458.1640625H497.32421875V471.50390625Q497.32421875 473.8671875 498.564453125 475.1953125Q499.8046875 476.5234375 501.93359375 476.5234375Q504.12109375 476.5234375 505.56640625 475.107421875Q507.01171875 473.69140625 507.01171875 471.09375V458.1640625H511.328125V480.0H507.20703125L507.1875 475.76171875Q506.15234375 478.14453125 504.443359375 479.208984375Q502.734375 480.2734375 500.46875 480.2734375Z M524.921875 480.44921875Q521.3671875 480.44921875 519.033203125 478.916015625Q516.69921875 477.3828125 516.11328125 474.47265625L520.15625 473.6328125Q521.03515625 476.97265625 524.9609375 476.97265625Q527.05078125 476.97265625 528.271484375 476.103515625Q529.4921875 475.234375 529.4921875 474.0234375Q529.4921875 471.953125 526.42578125 471.26953125L522.75390625 470.4296875Q516.73828125 469.08203125 516.73828125 464.39453125Q516.73828125 462.44140625 517.822265625 460.9765625Q518.90625 459.51171875 520.810546875 458.701171875Q522.71484375 457.890625 525.1953125 457.890625Q528.73046875 457.890625 530.7421875 459.404296875Q532.75390625 460.91796875 533.45703125 463.33984375L529.609375 464.1796875Q529.19921875 463.02734375 528.18359375 462.158203125Q527.16796875 461.2890625 525.234375 461.2890625Q523.45703125 461.2890625 522.265625 462.08984375Q521.07421875 462.890625 521.07421875 464.12109375Q521.07421875 465.21484375 521.865234375 465.888671875Q522.65625 466.5625 524.453125 466.97265625L527.96875 467.75390625Q533.92578125 469.1015625 533.92578125 473.65234375Q533.92578125 475.64453125 532.783203125 477.177734375Q531.640625 478.7109375 529.609375 479.580078125Q527.578125 480.44921875 524.921875 480.44921875Z M538.6328125 480.0V458.1640625H542.9296875V480.0ZM540.80078125 454.82421875Q539.6875 454.82421875 538.896484375 454.08203125Q538.10546875 453.33984375 538.10546875 452.28515625Q538.10546875 451.2109375 538.896484375 450.46875Q539.6875 449.7265625 540.80078125 449.7265625Q541.9140625 449.7265625 542.71484375 450.46875Q543.515625 451.2109375 543.515625 452.28515625Q543.515625 453.33984375 542.71484375 454.08203125Q541.9140625 454.82421875 540.80078125 454.82421875Z M557.890625 480.44921875Q554.8046875 480.44921875 552.51953125 479.04296875Q550.234375 477.63671875 548.96484375 475.107421875Q547.6953125 472.578125 547.6953125 469.19921875Q547.6953125 465.80078125 548.96484375 463.251953125Q550.234375 460.703125 552.51953125 459.296875Q554.8046875 457.890625 557.890625 457.890625Q561.2890625 457.890625 563.759765625 459.599609375Q566.23046875 461.30859375 567.03125 464.3359375L562.94921875 465.3125Q562.5 463.61328125 561.201171875 462.568359375Q559.90234375 461.5234375 557.91015625 461.5234375Q555.9375 461.5234375 554.638671875 462.55859375Q553.33984375 463.59375 552.705078125 465.341796875Q552.0703125 467.08984375 552.0703125 469.19921875Q552.0703125 471.2890625 552.705078125 473.017578125Q553.33984375 474.74609375 554.638671875 475.78125Q555.9375 476.81640625 557.91015625 476.81640625Q559.94140625 476.81640625 561.26953125 475.732421875Q562.59765625 474.6484375 563.02734375 472.87109375L567.08984375 473.84765625Q566.2890625 476.93359375 563.80859375 478.69140625Q561.328125 480.44921875 557.890625 480.44921875Z  M582.16796875 487.8515625 583.22265625 484.35546875 583.7109375 484.47265625Q585.37109375 484.921875 586.533203125 484.365234375Q587.6953125 483.80859375 588.30078125 481.69921875L588.76953125 480.09765625L580.46875 458.1640625H585.1171875L589.43359375 470.56640625Q589.921875 472.01171875 590.29296875 473.41796875Q590.6640625 474.82421875 591.015625 476.23046875Q591.38671875 474.82421875 591.77734375 473.408203125Q592.16796875 471.9921875 592.67578125 470.56640625L597.0703125 458.1640625H601.6796875L592.1875 483.02734375Q591.19140625 485.64453125 589.501953125 486.982421875Q587.8125 488.3203125 585.17578125 488.3203125Q584.16015625 488.3203125 583.369140625 488.173828125Q582.578125 488.02734375 582.16796875 487.8515625Z M614.6484375 480.44921875Q611.58203125 480.44921875 609.287109375 479.04296875Q606.9921875 477.63671875 605.72265625 475.107421875Q604.453125 472.578125 604.453125 469.19921875Q604.453125 465.80078125 605.72265625 463.251953125Q606.9921875 460.703125 609.287109375 459.296875Q611.58203125 457.890625 614.6484375 457.890625Q617.734375 457.890625 620.029296875 459.296875Q622.32421875 460.703125 623.59375 463.251953125Q624.86328125 465.80078125 624.86328125 469.19921875Q624.86328125 472.578125 623.59375 475.107421875Q622.32421875 477.63671875 620.029296875 479.04296875Q617.734375 480.44921875 614.6484375 480.44921875ZM614.6484375 476.81640625Q616.640625 476.81640625 617.939453125 475.771484375Q619.23828125 474.7265625 619.873046875 472.998046875Q620.5078125 471.26953125 620.5078125 469.19921875Q620.5078125 467.109375 619.873046875 465.361328125Q619.23828125 463.61328125 617.939453125 462.568359375Q616.640625 461.5234375 614.6484375 461.5234375Q612.67578125 461.5234375 611.38671875 462.568359375Q610.09765625 463.61328125 609.462890625 465.361328125Q608.828125 467.109375 608.828125 469.19921875Q608.828125 471.26953125 609.462890625 472.998046875Q610.09765625 474.7265625 611.38671875 475.771484375Q612.67578125 476.81640625 614.6484375 476.81640625Z M637.0703125 480.2734375Q633.73046875 480.2734375 631.6796875 478.173828125Q629.62890625 476.07421875 629.62890625 472.03125V458.1640625H633.92578125V471.50390625Q633.92578125 473.8671875 635.166015625 475.1953125Q636.40625 476.5234375 638.53515625 476.5234375Q640.72265625 476.5234375 642.16796875 475.107421875Q643.61328125 473.69140625 643.61328125 471.09375V458.1640625H647.9296875V480.0H643.80859375L643.7890625 475.76171875Q642.75390625 478.14453125 641.044921875 479.208984375Q639.3359375 480.2734375 637.0703125 480.2734375Z  M673.53515625 480.44921875Q670.44921875 480.44921875 668.1640625 479.04296875Q665.87890625 477.63671875 664.609375 475.107421875Q663.33984375 472.578125 663.33984375 469.19921875Q663.33984375 465.80078125 664.609375 463.251953125Q665.87890625 460.703125 668.1640625 459.296875Q670.44921875 457.890625 673.53515625 457.890625Q676.93359375 457.890625 679.404296875 459.599609375Q681.875 461.30859375 682.67578125 464.3359375L678.59375 465.3125Q678.14453125 463.61328125 676.845703125 462.568359375Q675.546875 461.5234375 673.5546875 461.5234375Q671.58203125 461.5234375 670.283203125 462.55859375Q668.984375 463.59375 668.349609375 465.341796875Q667.71484375 467.08984375 667.71484375 469.19921875Q667.71484375 471.2890625 668.349609375 473.017578125Q668.984375 474.74609375 670.283203125 475.78125Q671.58203125 476.81640625 673.5546875 476.81640625Q675.5859375 476.81640625 676.9140625 475.732421875Q678.2421875 474.6484375 678.671875 472.87109375L682.734375 473.84765625Q681.93359375 476.93359375 679.453125 478.69140625Q676.97265625 480.44921875 673.53515625 480.44921875Z M693.5546875 480.48828125Q691.46484375 480.48828125 689.794921875 479.716796875Q688.125 478.9453125 687.1484375 477.4609375Q686.171875 475.9765625 686.171875 473.828125Q686.171875 471.97265625 686.89453125 470.771484375Q687.6171875 469.5703125 688.828125 468.876953125Q690.0390625 468.18359375 691.533203125 467.83203125Q693.02734375 467.48046875 694.5703125 467.3046875Q697.4609375 466.97265625 698.76953125 466.728515625Q700.078125 466.484375 700.078125 465.33203125V465.21484375Q700.078125 463.3984375 699.013671875 462.392578125Q697.94921875 461.38671875 695.8984375 461.38671875Q693.75 461.38671875 692.51953125 462.32421875Q691.2890625 463.26171875 690.83984375 464.375L686.796875 463.3203125Q687.5390625 461.3671875 688.92578125 460.17578125Q690.3125 458.984375 692.099609375 458.4375Q693.88671875 457.890625 695.83984375 457.890625Q697.1484375 457.890625 698.6328125 458.203125Q700.1171875 458.515625 701.42578125 459.326171875Q702.734375 460.13671875 703.5546875 461.640625Q704.375 463.14453125 704.375 465.5078125V480.0H700.21484375V477.01171875H700.0Q699.35546875 478.30078125 697.783203125 479.39453125Q696.2109375 480.48828125 693.5546875 480.48828125ZM694.51171875 477.03125Q696.25 477.03125 697.5 476.337890625Q698.75 475.64453125 699.423828125 474.53125Q700.09765625 473.41796875 700.09765625 472.12890625V469.3359375Q699.78515625 469.6484375 698.759765625 469.873046875Q697.734375 470.09765625 696.6015625 470.25390625Q695.46875 470.41015625 694.8046875 470.48828125Q692.98828125 470.7421875 691.689453125 471.474609375Q690.390625 472.20703125 690.390625 473.88671875Q690.390625 475.44921875 691.552734375 476.240234375Q692.71484375 477.03125 694.51171875 477.03125Z M714.453125 467.0703125V480.0H710.15625V458.1640625H714.2578125L714.27734375 462.36328125Q715.29296875 460.05859375 717.001953125 458.974609375Q718.7109375 457.890625 721.015625 457.890625Q724.35546875 457.890625 726.396484375 459.990234375Q728.4375 462.08984375 728.4375 466.1328125V480.0H724.140625V466.66015625Q724.140625 464.296875 722.91015625 462.96875Q721.6796875 461.640625 719.53125 461.640625Q717.34375 461.640625 715.8984375 463.056640625Q714.453125 464.47265625 714.453125 467.0703125Z  M755.703125 458.1640625V461.66015625H750.8203125V480.0H746.5234375V461.66015625H742.3828125V458.1640625H746.5234375V455.6640625Q746.5234375 453.6328125 747.431640625 452.265625Q748.33984375 450.8984375 749.814453125 450.21484375Q751.2890625 449.53125 753.02734375 449.53125Q754.31640625 449.53125 755.244140625 449.736328125Q756.171875 449.94140625 756.62109375 450.1171875L755.625 453.59375Q755.3125 453.515625 754.84375 453.3984375Q754.375 453.28125 753.7109375 453.28125Q752.16796875 453.28125 751.494140625 454.04296875Q750.8203125 454.8046875 750.8203125 456.25V458.1640625Z M769.47265625 480.44921875Q766.25 480.44921875 763.90625 479.0625Q761.5625 477.67578125 760.302734375 475.15625Q759.04296875 472.63671875 759.04296875 469.23828125Q759.04296875 465.87890625 760.283203125 463.3203125Q761.5234375 460.76171875 763.7890625 459.326171875Q766.0546875 457.890625 769.1015625 457.890625Q771.58203125 457.890625 773.818359375 458.994140625Q776.0546875 460.09765625 777.451171875 462.509765625Q778.84765625 464.921875 778.84765625 468.8671875V470.390625H763.359375Q763.4765625 473.5546875 765.15625 475.224609375Q766.8359375 476.89453125 769.51171875 476.89453125Q771.30859375 476.89453125 772.607421875 476.11328125Q773.90625 475.33203125 774.47265625 473.80859375L778.515625 474.765625Q777.734375 477.32421875 775.3515625 478.88671875Q772.96875 480.44921875 769.47265625 480.44921875ZM763.37890625 467.1875H774.58984375Q774.35546875 464.609375 772.978515625 463.02734375Q771.6015625 461.4453125 769.12109375 461.4453125Q766.54296875 461.4453125 765.048828125 463.134765625Q763.5546875 464.82421875 763.37890625 467.1875Z M792.96875 480.44921875Q789.74609375 480.44921875 787.40234375 479.0625Q785.05859375 477.67578125 783.798828125 475.15625Q782.5390625 472.63671875 782.5390625 469.23828125Q782.5390625 465.87890625 783.779296875 463.3203125Q785.01953125 460.76171875 787.28515625 459.326171875Q789.55078125 457.890625 792.59765625 457.890625Q795.078125 457.890625 797.314453125 458.994140625Q799.55078125 460.09765625 800.947265625 462.509765625Q802.34375 464.921875 802.34375 468.8671875V470.390625H786.85546875Q786.97265625 473.5546875 788.65234375 475.224609375Q790.33203125 476.89453125 793.0078125 476.89453125Q794.8046875 476.89453125 796.103515625 476.11328125Q797.40234375 475.33203125 797.96875 473.80859375L802.01171875 474.765625Q801.23046875 477.32421875 798.84765625 478.88671875Q796.46484375 480.44921875 792.96875 480.44921875ZM786.875 467.1875H798.0859375Q797.8515625 464.609375 796.474609375 463.02734375Q795.09765625 461.4453125 792.6171875 461.4453125Q790.0390625 461.4453125 788.544921875 463.134765625Q787.05078125 464.82421875 786.875 467.1875Z M811.34765625 450.8984375V480.0H807.05078125V450.8984375Z M820.3125 480.29296875Q819.1015625 480.29296875 818.26171875 479.462890625Q817.421875 478.6328125 817.421875 477.421875Q817.421875 476.2109375 818.26171875 475.37109375Q819.1015625 474.53125 820.3125 474.53125Q821.5234375 474.53125 822.353515625 475.37109375Q823.18359375 476.2109375 823.18359375 477.421875Q823.18359375 478.6328125 822.353515625 479.462890625Q821.5234375 480.29296875 820.3125 480.29296875Z" fill="#8E8E93"/></svg>